# xmcd CD database file
#
# Track frame offsets:
#	150
#	21847
#	42791
#	56557
#	71005
#	90435
#	108940
#	125029
#	136030
#	151688
#	167507
#	186757
#	208651
#	238696
#	259871
#	286070
#	307024
#
# Disc length: 4374 seconds
#
# Revision: 1
# Processed by: cddbd v1.5.2PL0 Copyright (c) Steve Scherf et al.
# Submitted via: CDex 1.51
#
DISCID=e3111411
DTITLE=Bebel Gilberto - Tanto Tempo
DYEAR=2003
DGENRE=Jazz
TTITLE0=Samba da Bencao
TTITLE1=August Day Song
TTITLE2=Tanto Tempo
TTITLE3=Sem Contencao
TTITLE4=Mais Feliz
TTITLE5=Alguem
TTITLE6=So Nice (Summer Samba)
TTITLE7=Lonely
TTITLE8=Bananeira
TTITLE9=Samba e Amor
TTITLE10=Close Your Eyes
TTITLE11=Bananeira (remixed by Rae and Ch
TTITLE12=Sem Contencao (remixed by Trub
TTITLE13=August Day Song (remixed by Ch
TTITLE14=Tanto Tempo (remixed by Peter
TTITLE15=Mais Feliz (remixed by Monoaur
TTITLE16=So Nice (Summer Samba) (remixe
EXTD=YEAR: 2003
EXTT0=
EXTT1=
EXTT2=
EXTT3=
EXTT4=
EXTT5=
EXTT6=
EXTT7=
EXTT8=
EXTT9=
EXTT10=
EXTT11=
EXTT12=
EXTT13=
EXTT14=
EXTT15=
EXTT16=
PLAYORDER=
